<svg width="152" height="17" viewBox="0 0 152 17" fill="none" xmlns="http://www.w3.org/2000/svg" id='logo-big'>
  <path d="M43 7.28571C43.5523 7.28571 44 7.73343 44 8.28571V8.71429C44 9.26657 43.5523 9.71429 43 9.71429H41.8571C41.3049 9.71429 40.8571 10.162 40.8571 10.7143V13.5714C40.8571 14.1237 40.4094 14.5714 39.8571 14.5714H38.7143C38.162 14.5714 37.7143 15.0191 37.7143 15.5714V16C37.7143 16.5523 37.2666 17 36.7143 17H34C33.4477 17 33 16.5523 33 16V10.7143C33 10.162 32.5523 9.71429 32 9.71429H12C11.4477 9.71429 11 10.162 11 10.7143V16C11 16.5523 10.5523 17 10 17H7.28572C6.73343 17 6.28571 16.5523 6.28571 16V15.5714C6.28571 15.0191 5.838 14.5714 5.28571 14.5714H4.14286C3.59057 14.5714 3.14286 14.1237 3.14286 13.5714V10.7143C3.14286 10.162 2.69514 9.71429 2.14286 9.71429H0.999999C0.447714 9.71429 0 9.26657 0 8.71429V8.28571C0 7.73343 0.447715 7.28571 1 7.28571H2.14286C2.69514 7.28571 3.14286 6.838 3.14286 6.28571V3.42857C3.14286 2.87629 3.59057 2.42857 4.14286 2.42857H5.28572C5.838 2.42857 6.28571 1.98086 6.28571 1.42857V0.999999C6.28571 0.447714 6.73343 0 7.28571 0H10C10.5523 0 11 0.447715 11 1V6.28572C11 6.838 11.4477 7.28571 12 7.28571H32C32.5523 7.28571 33 6.838 33 6.28571V0.999999C33 0.447714 33.4477 0 34 0H36.7143C37.2666 0 37.7143 0.447715 37.7143 1V1.42857C37.7143 1.98086 38.162 2.42857 38.7143 2.42857H39.8571C40.4094 2.42857 40.8571 2.87629 40.8571 3.42857V6.28572C40.8571 6.838 41.3049 7.28571 41.8571 7.28571H43Z" fill="#EFEDE8" />
  <path d="M52 15.87V1.87H57C57.76 1.87 58.4467 2.06 59.06 2.44C59.68 2.82 60.17 3.33 60.53 3.97C60.89 4.61 61.07 5.31333 61.07 6.08C61.07 6.86666 60.8833 7.58 60.51 8.22C60.1433 8.85333 59.65 9.36 59.03 9.74C58.41 10.1133 57.7333 10.3 57 10.3H54.44V15.87H52ZM54.44 7.86H56.74C57.0867 7.86 57.4033 7.77333 57.69 7.6C57.9767 7.42666 58.2033 7.19333 58.37 6.9C58.5433 6.60666 58.63 6.28 58.63 5.92C58.63 5.55333 58.5433 5.22333 58.37 4.93C58.2033 4.63666 57.9767 4.40333 57.69 4.23C57.4033 4.05666 57.0867 3.97 56.74 3.97H54.44V7.86Z" fill="#EFEDE8" />
  <path d="M66.6148 16.13C65.6948 16.13 64.8548 15.8933 64.0948 15.42C63.3415 14.9467 62.7382 14.3133 62.2848 13.52C61.8382 12.72 61.6148 11.8367 61.6148 10.87C61.6148 10.1367 61.7448 9.45333 62.0048 8.82C62.2648 8.18 62.6215 7.62 63.0748 7.14C63.5348 6.65333 64.0682 6.27333 64.6748 6C65.2815 5.72666 65.9282 5.59 66.6148 5.59C67.5348 5.59 68.3715 5.82666 69.1248 6.3C69.8848 6.77333 70.4882 7.41 70.9348 8.21C71.3882 9.01 71.6148 9.89666 71.6148 10.87C71.6148 11.5967 71.4848 12.2767 71.2248 12.91C70.9648 13.5433 70.6048 14.1033 70.1448 14.59C69.6915 15.07 69.1615 15.4467 68.5548 15.72C67.9548 15.9933 67.3082 16.13 66.6148 16.13ZM66.6148 13.69C67.1015 13.69 67.5382 13.56 67.9248 13.3C68.3115 13.04 68.6148 12.6967 68.8348 12.27C69.0615 11.8433 69.1748 11.3767 69.1748 10.87C69.1748 10.35 69.0582 9.87666 68.8248 9.45C68.5982 9.01666 68.2882 8.67333 67.8948 8.42C67.5082 8.16 67.0815 8.03 66.6148 8.03C66.1348 8.03 65.7015 8.16 65.3148 8.42C64.9282 8.68 64.6215 9.02666 64.3948 9.46C64.1682 9.89333 64.0548 10.3633 64.0548 10.87C64.0548 11.3967 64.1715 11.8733 64.4048 12.3C64.6382 12.7267 64.9482 13.0667 65.3348 13.32C65.7282 13.5667 66.1548 13.69 66.6148 13.69Z" fill="#EFEDE8" />
  <path d="M77.8631 15.87H75.4431L72.1031 5.87H74.4931L76.6631 12.34L78.8231 5.87H81.2331L83.3931 12.34L85.5631 5.87H87.9531L84.6131 15.87H82.1931L80.0231 9.37L77.8631 15.87Z" fill="#EFEDE8" />
  <path d="M93.4508 16.13C92.5308 16.13 91.6908 15.8933 90.9308 15.42C90.1774 14.9467 89.5741 14.31 89.1208 13.51C88.6741 12.71 88.4508 11.8267 88.4508 10.86C88.4508 10.1333 88.5808 9.45333 88.8408 8.82C89.1008 8.18 89.4574 7.62 89.9108 7.14C90.3708 6.65333 90.9041 6.27333 91.5108 6C92.1174 5.72666 92.7641 5.59 93.4508 5.59C94.2308 5.59 94.9441 5.75666 95.5908 6.09C96.2441 6.41666 96.7974 6.86666 97.2508 7.44C97.7041 8.01333 98.0341 8.66666 98.2408 9.4C98.4474 10.1333 98.4941 10.9 98.3808 11.7H91.0708C91.1641 12.0733 91.3174 12.41 91.5308 12.71C91.7441 13.0033 92.0141 13.24 92.3408 13.42C92.6674 13.5933 93.0374 13.6833 93.4508 13.69C93.8774 13.6967 94.2641 13.5967 94.6108 13.39C94.9641 13.1767 95.2574 12.89 95.4908 12.53L97.9808 13.11C97.5741 13.9967 96.9674 14.7233 96.1608 15.29C95.3541 15.85 94.4508 16.13 93.4508 16.13ZM90.9908 9.87H95.9108C95.8374 9.47 95.6808 9.11 95.4408 8.79C95.2074 8.46333 94.9174 8.20333 94.5708 8.01C94.2241 7.81666 93.8508 7.72 93.4508 7.72C93.0508 7.72 92.6808 7.81666 92.3408 8.01C92.0008 8.19666 91.7108 8.45333 91.4708 8.78C91.2374 9.1 91.0774 9.46333 90.9908 9.87Z" fill="#EFEDE8" />
  <path d="M100.018 15.87L100.008 5.87H102.448L102.458 6.76C102.798 6.4 103.204 6.11666 103.678 5.91C104.151 5.69666 104.661 5.59 105.208 5.59C105.574 5.59 105.941 5.64333 106.308 5.75L105.348 8.21C105.094 8.11 104.841 8.06 104.588 8.06C104.194 8.06 103.834 8.15666 103.508 8.35C103.188 8.53666 102.931 8.79333 102.738 9.12C102.551 9.44 102.458 9.79666 102.458 10.19V15.87H100.018Z" fill="#EFEDE8" />
  <path d="M107.43 15.87V1.87H112.43C113.19 1.87 113.876 2.06 114.49 2.44C115.11 2.82 115.6 3.33 115.96 3.97C116.32 4.61 116.5 5.31333 116.5 6.08C116.5 6.86666 116.313 7.58 115.94 8.22C115.573 8.85333 115.08 9.36 114.46 9.74C113.84 10.1133 113.163 10.3 112.43 10.3H109.87V15.87H107.43ZM109.87 7.86H112.17C112.516 7.86 112.833 7.77333 113.12 7.6C113.406 7.42666 113.633 7.19333 113.8 6.9C113.973 6.60666 114.06 6.28 114.06 5.92C114.06 5.55333 113.973 5.22333 113.8 4.93C113.633 4.63666 113.406 4.40333 113.12 4.23C112.833 4.05666 112.516 3.97 112.17 3.97H109.87V7.86Z" fill="#EFEDE8" />
  <path d="M117.538 12.17V5.87H119.978V11.53C119.978 11.9233 120.074 12.2833 120.268 12.61C120.461 12.93 120.718 13.1867 121.038 13.38C121.364 13.5667 121.721 13.66 122.108 13.66C122.508 13.66 122.868 13.5667 123.188 13.38C123.507 13.1867 123.764 12.93 123.958 12.61C124.151 12.2833 124.248 11.9233 124.248 11.53V5.87H126.688L126.698 15.87H124.257L124.248 14.96C123.901 15.32 123.491 15.6067 123.018 15.82C122.544 16.0267 122.038 16.13 121.498 16.13C120.771 16.13 120.107 15.9533 119.507 15.6C118.908 15.24 118.428 14.7633 118.068 14.17C117.714 13.57 117.538 12.9033 117.538 12.17Z" fill="#EFEDE8" />
  <path d="M128.758 15.87V0.869995H131.198V15.87H128.758Z" fill="#EFEDE8" />
  <path d="M136.552 16.05C136.032 16.0167 135.528 15.9133 135.042 15.74C134.562 15.56 134.135 15.3167 133.762 15.01C133.388 14.7033 133.102 14.3367 132.902 13.91L134.962 13.03C135.042 13.1633 135.172 13.3067 135.352 13.46C135.532 13.6067 135.745 13.73 135.992 13.83C136.245 13.93 136.522 13.98 136.822 13.98C137.075 13.98 137.315 13.9467 137.542 13.88C137.775 13.8067 137.962 13.6967 138.102 13.55C138.248 13.4033 138.322 13.2133 138.322 12.98C138.322 12.7333 138.235 12.5433 138.062 12.41C137.895 12.27 137.682 12.1667 137.422 12.1C137.168 12.0267 136.922 11.96 136.682 11.9C136.048 11.7733 135.458 11.5767 134.912 11.31C134.372 11.0433 133.935 10.7 133.602 10.28C133.275 9.85333 133.112 9.34 133.112 8.74C133.112 8.08 133.285 7.51 133.632 7.03C133.985 6.55 134.442 6.18 135.002 5.92C135.568 5.66 136.178 5.53 136.832 5.53C137.625 5.53 138.352 5.69666 139.012 6.03C139.678 6.35666 140.205 6.81999 140.592 7.42L138.662 8.56C138.568 8.4 138.438 8.25333 138.272 8.12C138.105 7.98 137.915 7.86666 137.702 7.78C137.488 7.68666 137.265 7.63333 137.032 7.62C136.732 7.60666 136.458 7.63333 136.212 7.7C135.965 7.76666 135.765 7.88 135.612 8.04C135.465 8.2 135.392 8.41333 135.392 8.68C135.392 8.93333 135.492 9.12333 135.692 9.25C135.892 9.37 136.132 9.46333 136.412 9.53C136.698 9.59666 136.972 9.67 137.232 9.75C137.818 9.94333 138.368 10.18 138.882 10.46C139.402 10.74 139.818 11.0833 140.132 11.49C140.445 11.8967 140.595 12.3833 140.582 12.95C140.582 13.5967 140.388 14.1633 140.002 14.65C139.615 15.13 139.115 15.4967 138.502 15.75C137.895 16.0033 137.245 16.1033 136.552 16.05Z" fill="#EFEDE8" />
  <path d="M146.537 16.13C145.617 16.13 144.777 15.8933 144.017 15.42C143.263 14.9467 142.66 14.31 142.207 13.51C141.76 12.71 141.537 11.8267 141.537 10.86C141.537 10.1333 141.667 9.45333 141.927 8.82C142.187 8.18 142.543 7.62 142.997 7.14C143.457 6.65333 143.99 6.27333 144.597 6C145.203 5.72666 145.85 5.59 146.537 5.59C147.317 5.59 148.03 5.75666 148.677 6.09C149.33 6.41666 149.883 6.86666 150.337 7.44C150.79 8.01333 151.12 8.66666 151.327 9.4C151.533 10.1333 151.58 10.9 151.467 11.7H144.157C144.25 12.0733 144.403 12.41 144.617 12.71C144.83 13.0033 145.1 13.24 145.427 13.42C145.753 13.5933 146.123 13.6833 146.537 13.69C146.963 13.6967 147.35 13.5967 147.697 13.39C148.05 13.1767 148.343 12.89 148.577 12.53L151.067 13.11C150.66 13.9967 150.053 14.7233 149.247 15.29C148.44 15.85 147.537 16.13 146.537 16.13ZM144.077 9.87H148.997C148.923 9.47 148.767 9.11 148.527 8.79C148.293 8.46333 148.003 8.20333 147.657 8.01C147.31 7.81666 146.937 7.72 146.537 7.72C146.137 7.72 145.767 7.81666 145.427 8.01C145.087 8.19666 144.797 8.45333 144.557 8.78C144.323 9.1 144.163 9.46333 144.077 9.87Z" fill="#EFEDE8" />
</svg>