
<svg width="126" height="13" viewBox="0 0 126 13" fill="none" xmlns="http://www.w3.org/2000/svg" id='logo-sm'>
  <path d="M35.0714 5.57143C35.5843 5.57143 36 5.98716 36 6.5C36 7.01284 35.5843 7.42857 35.0714 7.42857H34.4286C33.8763 7.42857 33.4286 7.87629 33.4286 8.42857V10.1429C33.4286 10.6951 32.9809 11.1429 32.4286 11.1429H31.7857C31.2729 11.1429 30.8571 11.5586 30.8571 12.0714C30.8571 12.5843 30.4414 13 29.9286 13H28C27.4477 13 27 12.5523 27 12V8.42857C27 7.87629 26.5523 7.42857 26 7.42857H10C9.44772 7.42857 9 7.87629 9 8.42857V12C9 12.5523 8.55228 13 8 13H6.07143C5.55859 13 5.14286 12.5843 5.14286 12.0714C5.14286 11.5586 4.72712 11.1429 4.21429 11.1429H3.57143C3.01914 11.1429 2.57143 10.6951 2.57143 10.1429V8.42857C2.57143 7.87629 2.12371 7.42857 1.57143 7.42857H0.928572C0.415736 7.42857 0 7.01284 0 6.5C0 5.98716 0.415736 5.57143 0.928572 5.57143H1.57143C2.12371 5.57143 2.57143 5.12371 2.57143 4.57143V2.85714C2.57143 2.30486 3.01914 1.85714 3.57143 1.85714H4.21429C4.72712 1.85714 5.14286 1.44141 5.14286 0.928571C5.14286 0.415736 5.55859 0 6.07143 0H8C8.55228 0 9 0.447715 9 1V4.57143C9 5.12371 9.44772 5.57143 10 5.57143H26C26.5523 5.57143 27 5.12371 27 4.57143V1C27 0.447716 27.4477 0 28 0H29.9286C30.4414 0 30.8571 0.415736 30.8571 0.928571C30.8571 1.44141 31.2729 1.85714 31.7857 1.85714H32.4286C32.9809 1.85714 33.4286 2.30486 33.4286 2.85714V4.57143C33.4286 5.12371 33.8763 5.57143 34.4286 5.57143H35.0714Z" fill="#E6533C" />
  <path d="M44 12.2955V1.28637H48.1195C48.7457 1.28637 49.3114 1.43578 49.8167 1.7346C50.3275 2.03342 50.7312 2.43447 51.0278 2.93775C51.3245 3.44102 51.4728 3.9941 51.4728 4.59699C51.4728 5.2156 51.319 5.77654 51.0114 6.27982C50.7093 6.77785 50.3028 7.17628 49.792 7.4751C49.2812 7.76868 48.7237 7.91547 48.1195 7.91547H46.0103V12.2955H44ZM46.0103 5.99672H47.9053C48.1909 5.99672 48.4518 5.92857 48.688 5.79227C48.9242 5.65596 49.1109 5.47248 49.2482 5.24181C49.391 5.01114 49.4624 4.75426 49.4624 4.47117C49.4624 4.18283 49.391 3.92333 49.2482 3.69266C49.1109 3.46199 48.9242 3.27851 48.688 3.1422C48.4518 3.0059 48.1909 2.93775 47.9053 2.93775H46.0103V5.99672Z" fill="#EFEDE8" />
  <path d="M56.0411 12.5C55.2832 12.5 54.5911 12.3139 53.9649 11.9417C53.3442 11.5695 52.8472 11.0714 52.4737 10.4476C52.1057 9.81848 51.9216 9.12385 51.9216 8.3637C51.9216 7.78703 52.0288 7.24967 52.243 6.75164C52.4572 6.24836 52.751 5.80799 53.1245 5.43054C53.5035 5.04784 53.9429 4.74902 54.4428 4.53408C54.9426 4.31914 55.4754 4.21167 56.0411 4.21167C56.7991 4.21167 57.4884 4.39777 58.1091 4.76999C58.7353 5.1422 59.2324 5.64286 59.6004 6.27195C59.9739 6.90105 60.1606 7.5983 60.1606 8.3637C60.1606 8.93512 60.0535 9.46986 59.8393 9.96789C59.6251 10.4659 59.3285 10.9063 58.9495 11.289C58.576 11.6664 58.1393 11.9626 57.6395 12.1776C57.1452 12.3925 56.6124 12.5 56.0411 12.5ZM56.0411 10.5813C56.4421 10.5813 56.8019 10.479 57.1204 10.2746C57.439 10.0701 57.6889 9.80013 57.8702 9.46461C58.0569 9.1291 58.1503 8.76212 58.1503 8.3637C58.1503 7.95478 58.0542 7.58257 57.8619 7.24705C57.6752 6.90629 57.4198 6.6363 57.0957 6.43709C56.7772 6.23263 56.4256 6.13041 56.0411 6.13041C55.6457 6.13041 55.2886 6.23263 54.9701 6.43709C54.6515 6.64155 54.3988 6.91416 54.2121 7.25492C54.0253 7.59568 53.932 7.96527 53.932 8.3637C53.932 8.77785 54.0281 9.15269 54.2203 9.4882C54.4126 9.82372 54.668 10.0911 54.9865 10.2903C55.3106 10.4843 55.6621 10.5813 56.0411 10.5813Z" fill="#EFEDE8" />
  <path d="M65.3086 12.2955H63.3147L60.5629 4.43185H62.532L64.3199 9.51966L66.0995 4.43185H68.0851L69.8647 9.51966L71.6526 4.43185H73.6217L70.8699 12.2955H68.876L67.0882 7.18414L65.3086 12.2955Z" fill="#EFEDE8" />
  <path d="M78.1512 12.5C77.3932 12.5 76.7011 12.3139 76.075 11.9417C75.4543 11.5695 74.9572 11.0688 74.5837 10.4397C74.2157 9.81062 74.0317 9.11599 74.0317 8.35583C74.0317 7.7844 74.1388 7.24967 74.353 6.75164C74.5672 6.24836 74.8611 5.80799 75.2346 5.43054C75.6136 5.04784 76.053 4.74902 76.5528 4.53408C77.0527 4.31914 77.5855 4.21167 78.1512 4.21167C78.7938 4.21167 79.3816 4.34273 79.9143 4.60485C80.4526 4.86173 80.9085 5.2156 81.282 5.66645C81.6555 6.1173 81.9274 6.63106 82.0977 7.20773C82.2679 7.7844 82.3064 8.38729 82.213 9.01638H76.1903C76.2672 9.30996 76.3936 9.57471 76.5693 9.81062C76.7451 10.0413 76.9675 10.2274 77.2367 10.3689C77.5058 10.5052 77.8107 10.576 78.1512 10.5813C78.5027 10.5865 78.8213 10.5079 79.1069 10.3453C79.398 10.1776 79.6397 9.95216 79.832 9.66907L81.8835 10.1252C81.5484 10.8224 81.0486 11.3938 80.384 11.8394C79.7194 12.2798 78.9751 12.5 78.1512 12.5ZM76.1244 7.57733H80.178C80.1176 7.26278 79.9885 6.97969 79.7908 6.72805C79.5985 6.47117 79.3596 6.26671 79.074 6.11468C78.7883 5.96265 78.4808 5.88663 78.1512 5.88663C77.8216 5.88663 77.5168 5.96265 77.2367 6.11468C76.9566 6.26147 76.7176 6.4633 76.5199 6.72018C76.3276 6.97182 76.1958 7.25754 76.1244 7.57733Z" fill="#EFEDE8" />
  <path d="M83.5618 12.2955L83.5535 4.43185H85.5638L85.5721 5.13172C85.8522 4.84862 86.1872 4.62582 86.5772 4.4633C86.9672 4.29554 87.3874 4.21167 87.8378 4.21167C88.1399 4.21167 88.442 4.2536 88.7441 4.33748L87.9531 6.27195C87.7444 6.19332 87.5357 6.154 87.327 6.154C87.0029 6.154 86.7063 6.23001 86.4372 6.38204C86.1735 6.52883 85.9621 6.73067 85.8028 6.98755C85.649 7.23919 85.5721 7.51966 85.5721 7.82896V12.2955H83.5618Z" fill="#EFEDE8" />
  <path d="M89.6684 12.2955V1.28637H93.7879C94.414 1.28637 94.9798 1.43578 95.4851 1.7346C95.9959 2.03342 96.3996 2.43447 96.6962 2.93775C96.9928 3.44102 97.1411 3.9941 97.1411 4.59699C97.1411 5.2156 96.9873 5.77654 96.6798 6.27982C96.3777 6.77785 95.9712 7.17628 95.4604 7.4751C94.9496 7.76868 94.3921 7.91547 93.7879 7.91547H91.6787V12.2955H89.6684ZM91.6787 5.99672H93.5737C93.8593 5.99672 94.1202 5.92857 94.3564 5.79227C94.5926 5.65596 94.7793 5.47248 94.9166 5.24181C95.0594 5.01114 95.1308 4.75426 95.1308 4.47117C95.1308 4.18283 95.0594 3.92333 94.9166 3.69266C94.7793 3.46199 94.5926 3.27851 94.3564 3.1422C94.1202 3.0059 93.8593 2.93775 93.5737 2.93775H91.6787V5.99672Z" fill="#EFEDE8" />
  <path d="M97.9962 9.38598V4.43185H100.007V8.8827C100.007 9.19201 100.086 9.4751 100.245 9.73198C100.405 9.98362 100.616 10.1855 100.88 10.3375C101.149 10.4843 101.443 10.5577 101.761 10.5577C102.091 10.5577 102.388 10.4843 102.651 10.3375C102.915 10.1855 103.126 9.98362 103.286 9.73198C103.445 9.4751 103.525 9.19201 103.525 8.8827V4.43185H105.535L105.543 12.2955H103.533L103.525 11.5799C103.239 11.863 102.901 12.0885 102.511 12.2562C102.121 12.4187 101.704 12.5 101.259 12.5C100.66 12.5 100.114 12.3611 99.6193 12.0832C99.1249 11.8001 98.7295 11.4253 98.4329 10.9587C98.1418 10.4869 97.9962 9.96265 97.9962 9.38598Z" fill="#EFEDE8" />
  <path d="M107.241 12.2955V0.5H109.251V12.2955H107.241Z" fill="#EFEDE8" />
  <path d="M113.662 12.4371C113.233 12.4109 112.819 12.3296 112.418 12.1933C112.022 12.0518 111.671 11.8604 111.363 11.6193C111.056 11.3781 110.819 11.0898 110.655 10.7543L112.352 10.0623C112.418 10.1671 112.525 10.2798 112.673 10.4004C112.821 10.5157 112.997 10.6127 113.2 10.6913C113.409 10.77 113.637 10.8093 113.884 10.8093C114.093 10.8093 114.291 10.7831 114.477 10.7307C114.67 10.673 114.824 10.5865 114.939 10.4712C115.06 10.3558 115.12 10.2064 115.12 10.0229C115.12 9.82897 115.049 9.67955 114.906 9.57471C114.769 9.46461 114.593 9.38336 114.379 9.33093C114.17 9.27326 113.967 9.22084 113.769 9.17366C113.247 9.07405 112.761 8.9194 112.311 8.7097C111.866 8.5 111.506 8.23001 111.231 7.89974C110.962 7.56422 110.828 7.16055 110.828 6.68873C110.828 6.16972 110.97 5.72149 111.256 5.34404C111.547 4.96658 111.923 4.67562 112.385 4.47117C112.852 4.26671 113.354 4.16448 113.893 4.16448C114.546 4.16448 115.145 4.29554 115.689 4.55767C116.238 4.81455 116.672 5.1789 116.99 5.65072L115.4 6.54718C115.323 6.42136 115.216 6.30603 115.079 6.20118C114.942 6.09109 114.785 6.00197 114.609 5.93381C114.434 5.86042 114.25 5.81848 114.057 5.808C113.81 5.79751 113.585 5.81848 113.382 5.8709C113.178 5.92333 113.014 6.01245 112.887 6.13827C112.767 6.26409 112.706 6.43185 112.706 6.64155C112.706 6.84076 112.789 6.99017 112.953 7.08978C113.118 7.18414 113.316 7.25754 113.546 7.30996C113.783 7.36239 114.008 7.42005 114.222 7.48296C114.705 7.63499 115.159 7.8211 115.582 8.04129C116.01 8.26147 116.353 8.53146 116.611 8.85125C116.87 9.17104 116.993 9.55374 116.982 9.99934C116.982 10.5079 116.823 10.9535 116.504 11.3362C116.186 11.7136 115.774 12.002 115.268 12.2012C114.769 12.4004 114.233 12.479 113.662 12.4371Z" fill="#EFEDE8" />
  <path d="M121.889 12.5C121.131 12.5 120.439 12.3139 119.812 11.9417C119.192 11.5695 118.695 11.0688 118.321 10.4397C117.953 9.81062 117.769 9.11599 117.769 8.35583C117.769 7.7844 117.876 7.24967 118.09 6.75164C118.305 6.24836 118.598 5.80799 118.972 5.43054C119.351 5.04784 119.79 4.74902 120.29 4.53408C120.79 4.31914 121.323 4.21167 121.889 4.21167C122.531 4.21167 123.119 4.34273 123.652 4.60485C124.19 4.86173 124.646 5.2156 125.019 5.66645C125.393 6.1173 125.665 6.63106 125.835 7.20773C126.005 7.7844 126.044 8.38729 125.95 9.01638H119.928C120.005 9.30996 120.131 9.57471 120.307 9.81062C120.482 10.0413 120.705 10.2274 120.974 10.3689C121.243 10.5052 121.548 10.576 121.889 10.5813C122.24 10.5865 122.559 10.5079 122.844 10.3453C123.135 10.1776 123.377 9.95216 123.569 9.66907L125.621 10.1252C125.286 10.8224 124.786 11.3938 124.121 11.8394C123.457 12.2798 122.712 12.5 121.889 12.5ZM119.862 7.57733H123.915C123.855 7.26278 123.726 6.97969 123.528 6.72805C123.336 6.47117 123.097 6.26671 122.811 6.11468C122.526 5.96265 122.218 5.88663 121.889 5.88663C121.559 5.88663 121.254 5.96265 120.974 6.11468C120.694 6.26147 120.455 6.4633 120.257 6.72018C120.065 6.97182 119.933 7.25754 119.862 7.57733Z" fill="#EFEDE8" />
</svg>
