<svg xmlns="http://www.w3.org/2000/svg" aria-hidden="true"
  style="position:absolute;width:0;height:0;overflow:hidden">
  <defs>
    <symbol id="icon-Line" viewBox="0 0 87 32">
      <path fill="none" stroke="#ef8964" style="stroke: var(--color1, #ef8964)"
        stroke-linejoin="round" stroke-linecap="round" stroke-miterlimit="4" stroke-width="1.7297"
        d="M60.717 0.865c-20.169 0.292-64.211 3.812-59.502 21.728 4.232 12.649 64.534 9.932 79.413 0.414s-5.555-19.422-34.037-15.916"></path>
    </symbol>
    <symbol id="apple" viewBox="0 0 32 32">
      <path fill="#ef8964"
        d="M19.454 4.758a.794.794 0 0 0 .479-.399.798.798 0 0 0-.672-1.166.798.798 0 0 0-.314.048c-1.501.499-2.435 1.731-2.986 3.051a8.02 8.02 0 0 0-.203.542 6.394 6.394 0 0 0-1.138-1.541 6.39 6.39 0 0 0-4.705-1.872 1.74 1.74 0 0 0-1.694 1.694 6.39 6.39 0 0 0 1.872 4.705l.05.048a6.401 6.401 0 0 0-5.027 5.747l-.01.118a13.6 13.6 0 0 0 1.616 7.597l.576 1.053a.979.979 0 0 0 .051.08l1.6 2.243a4.301 4.301 0 0 0 3.142 1.785 4.297 4.297 0 0 0 3.392-1.244.743.743 0 0 1 .516-.214.72.72 0 0 1 .516.214 4.299 4.299 0 0 0 5.16.698 4.28 4.28 0 0 0 1.374-1.239l1.6-2.242a.625.625 0 0 0 .051-.082l.574-1.053a13.598 13.598 0 0 0 1.616-7.597l-.008-.118a6.386 6.386 0 0 0-2.442-4.533 6.404 6.404 0 0 0-4.99-1.268l-2.651.442c.016-1.09.208-2.315.638-3.349.448-1.08 1.114-1.848 2.013-2.149h.002zm-8.4 9.6a1.955 1.955 0 0 0-1.147.968c-.296.557-.499 1.475-.312 2.974a.8.8 0 0 1-1.587.198c-.213-1.702-.016-2.984.488-3.926a3.551 3.551 0 0 1 2.053-1.733.791.791 0 0 1 .858.235.814.814 0 0 1 .194.581.791.791 0 0 1-.274.548.814.814 0 0 1-.271.155z"
        style="fill:var(--color1, #ef8964)" />
    </symbol>

    <symbol id="arrow" viewBox="0 0 32 32">
      <path stroke-linecap="round" stroke-linejoin="round" stroke-width="2.4"
        d="M18.133 22.667 24.8 16m0 0-6.667-6.667M24.8 16h-16" />
    </symbol>

    <symbol id="arrow-down" viewBox="0 0 32 32">
      <path stroke-linecap="round" stroke-linejoin="round" stroke-width="3.556" d="m8 12 8 8 8-8" />
    </symbol>

    <symbol id="arrow-left" viewBox="0 0 32 32">
      <path
        d="m21.086 1.086 2.828 2.828L12.328 15.5l11.586 11.586-2.828 2.828L6.672 15.5 21.086 1.086z" />
    </symbol>

    <symbol id="arrow-right" viewBox="0 0 32 32">
      <path
        d="m10.914 29.914-2.828-2.828L19.672 15.5 8.086 3.914l2.828-2.828L25.328 15.5 10.914 29.914z" />
    </symbol>

    <symbol id="avatar" viewBox="0 0 32 32">
      <path
        d="M16 .232a7.887 7.887 0 0 1 7.884 7.884A7.887 7.887 0 0 1 16 16a7.887 7.887 0 0 1-7.884-7.884A7.887 7.887 0 0 1 16 .232zm0 31.536s15.768 0 15.768-3.942c0-4.73-7.687-9.855-15.768-9.855S.232 23.096.232 27.826C.232 31.768 16 31.768 16 31.768z" />
    </symbol>

    <symbol id="avatar-header" viewBox="0 0 32 32">
      <path
        d="M16 5.333a5.332 5.332 0 1 1 0 10.665 5.332 5.332 0 0 1 0-10.665zm0 21.334s10.667 0 10.667-2.667c0-3.2-5.2-6.667-10.667-6.667S5.333 20.8 5.333 24C5.333 26.667 16 26.667 16 26.667z" />
    </symbol>

    <symbol id="avatar-plus" viewBox="0 0 32 32">
      <path fill="#e6533c"
        d="m10.898.9 4.548 1.315c.329.095.678.096 1.007.002L21.137.884a1.825 1.825 0 0 1 2.101.879l2.43 4.439c.163.298.406.544.701.712l3.865 2.189a1.825 1.825 0 0 1 .843 2.132l-1.339 4.294c-.11.352-.11.729-.002 1.081l1.352 4.384c.25.81-.091 1.686-.823 2.114l-4.309 2.519a1.828 1.828 0 0 0-.693.724l-2.049 3.882a1.825 1.825 0 0 1-2.08.913l-4.716-1.245a1.823 1.823 0 0 0-.939.002l-4.572 1.226a1.827 1.827 0 0 1-2.109-.953l-2.043-4.127a1.818 1.818 0 0 0-.791-.808L1.79 23.062a1.828 1.828 0 0 1-.915-2.104l1.217-4.41a1.82 1.82 0 0 0 .004-.955L.847 10.897a1.824 1.824 0 0 1 .877-2.064l4.288-2.385c.312-.173.566-.435.731-.751l2.026-3.885a1.825 1.825 0 0 1 2.126-.909z"
        style="fill:var(--color2, #e6533c)" />
      <path fill="none" stroke="#efede8" stroke-linecap="round" stroke-linejoin="round"
        stroke-width="1.939" d="M16 10.909v10.182M10.909 16h10.182"
        style="stroke:var(--color3, #efede8)" />
    </symbol>

    <symbol id="bubble" viewBox="0 0 32 32">
      <path fill="#ef8964"
        d="M20.793 16.346c3.778 0 6.84-3.062 6.84-6.84s-3.062-6.84-6.84-6.84-6.84 3.062-6.84 6.84 3.062 6.84 6.84 6.84zM8.476 25.919a4.107 4.107 0 1 0 0-8.215 4.107 4.107 0 0 0 0 8.215zm13.675 3.413a3.413 3.413 0 1 0 0-6.826 3.413 3.413 0 0 0 0 6.826z"
        style="fill:var(--color1, #ef8964)" />
    </symbol>

    <symbol id="burger-menu" viewBox="0 0 32 32">
      <path fill="none" stroke="#e6533c" stroke-linecap="round" stroke-linejoin="round"
        stroke-width="2" d="M4 16h16M4 8h24M4 24h24" style="stroke:var(--color2, #e6533c)" />
    </symbol>

    <symbol id="calendar" viewBox="0 0 32 32">
      <path stroke-linecap="round" stroke-linejoin="round" stroke-width="2.667"
        d="M25.333 5.333H6.666A2.667 2.667 0 0 0 3.999 8v18.667a2.667 2.667 0 0 0 2.667 2.667h18.667A2.667 2.667 0 0 0 28 26.667V8a2.667 2.667 0 0 0-2.667-2.667zm-4-2.666V8M10.667 2.667V8M4 13.333h24" />
    </symbol>

    <symbol id="circle" viewBox="0 0 32 32">
      <path d="M16 0c8.837 0 16 7.163 16 16s-7.163 16-16 16S0 24.837 0 16 7.163 0 16 0z" />
    </symbol>

    <symbol id="dumbbell" viewBox="0 0 32 32">
      <path fill="#ef8964"
        d="M5.2 8H2.8c-.665 0-1.2.535-1.2 1.2v5.2H.4c-.22 0-.4.18-.4.4v2.4c0 .22.18.4.4.4h1.2v5.2c0 .665.535 1.2 1.2 1.2h2.4c.665 0 1.2-.535 1.2-1.2V9.2c0-.665-.535-1.2-1.2-1.2zm26.4 6.4h-1.2V9.2c0-.665-.535-1.2-1.2-1.2h-2.4c-.665 0-1.2.535-1.2 1.2v13.6c0 .665.535 1.2 1.2 1.2h2.4c.665 0 1.2-.535 1.2-1.2v-5.2h1.2c.22 0 .4-.18.4-.4v-2.4c0-.22-.18-.4-.4-.4zm-8.8-9.6h-2.4c-.665 0-1.2.535-1.2 1.2v8.4h-6.4V6c0-.665-.535-1.2-1.2-1.2H9.2C8.535 4.8 8 5.335 8 6v20c0 .665.535 1.2 1.2 1.2h2.4c.665 0 1.2-.535 1.2-1.2v-8.4h6.4V26c0 .665.535 1.2 1.2 1.2h2.4c.665 0 1.2-.535 1.2-1.2V6c0-.665-.535-1.2-1.2-1.2z"
        style="fill:var(--color1, #ef8964)" />
    </symbol>

    <symbol id="dumbbell-stat" viewBox="0 0 32 32">
      <path
        d="M5.2 8H2.8c-.665 0-1.2.535-1.2 1.2v5.2H.4c-.22 0-.4.18-.4.4v2.4c0 .22.18.4.4.4h1.2v5.2c0 .665.535 1.2 1.2 1.2h2.4c.665 0 1.2-.535 1.2-1.2V9.2c0-.665-.535-1.2-1.2-1.2zm26.4 6.4h-1.2V9.2c0-.665-.535-1.2-1.2-1.2h-2.4c-.665 0-1.2.535-1.2 1.2v13.6c0 .665.535 1.2 1.2 1.2h2.4c.665 0 1.2-.535 1.2-1.2v-5.2h1.2c.22 0 .4-.18.4-.4v-2.4c0-.22-.18-.4-.4-.4zm-8.8-9.6h-2.4c-.665 0-1.2.535-1.2 1.2v8.4h-6.4V6c0-.665-.535-1.2-1.2-1.2H9.2C8.535 4.8 8 5.335 8 6v20c0 .665.535 1.2 1.2 1.2h2.4c.665 0 1.2-.535 1.2-1.2v-8.4h6.4V26c0 .665.535 1.2 1.2 1.2h2.4c.665 0 1.2-.535 1.2-1.2V6c0-.665-.535-1.2-1.2-1.2z" />
    </symbol>

    <symbol id="exclamation-mark" viewBox="0 0 32 32">
      <path fill="#efa082"
        d="M32 16c0 8.837-7.163 16-16 16S0 24.837 0 16 7.163 0 16 0s16 7.163 16 16z"
        style="fill:var(--color4, #efa082)" />
      <path fill="none" stroke="#efede8" stroke-linecap="round" stroke-linejoin="round"
        stroke-width="2.667" d="M16 25.333v.013M16 20V6.667" style="stroke:var(--color3, #efede8)" />
    </symbol>

    <symbol id="eye" viewBox="0 0 32 32">
      <path stroke-linecap="round" stroke-linejoin="round" stroke-width="2.88"
        d="M1.333 16S6.666 5.333 16 5.333 30.667 16 30.667 16 25.334 26.667 16 26.667C6.667 26.667 1.333 16 1.333 16z" />
      <path stroke-linecap="round" stroke-linejoin="round" stroke-width="2.88"
        d="M16 20a4 4 0 1 0 0-8 4 4 0 0 0 0 8z" />
    </symbol>

    <symbol id="eye-off" viewBox="0 0 32 32">
      <path stroke-linecap="round" stroke-linejoin="round" stroke-width="2.88"
        d="M23.92 23.92A13.43 13.43 0 0 1 16 26.667C6.667 26.667 1.333 16 1.333 16A24.605 24.605 0 0 1 8.08 8.08m5.12-2.427a12.161 12.161 0 0 1 2.8-.32C25.333 5.333 30.667 16 30.667 16a24.646 24.646 0 0 1-2.88 4.253m-8.96-1.426a4.003 4.003 0 0 1-5.755.102 3.994 3.994 0 0 1-.824-4.457c.219-.491.534-.932.927-1.298M1.333 1.333l29.333 29.333" />
    </symbol>

    <symbol id="fire" viewBox="0 0 32 32">
      <path fill="#ef8964"
        d="M16.001 22.291c-.946.72-2.898 2.5-2.898 4.925 0 1.601 1.3 2.904 2.897 2.904s2.897-1.303 2.897-2.904c0-2.297-1.954-4.161-2.895-4.925z"
        style="fill:var(--color1, #ef8964)" />
      <path fill="#ef8964"
        d="M22.789 5.57a.936.936 0 0 0-1.34-.064l-4.412 4.117V1c0-.722-.87-1.261-1.522-.867-.123.075-3.055 1.865-6.017 5.116-3.602 3.953-6.055 8.766-6.055 14.164C3.443 26.354 9.076 32 16 32c-2.631 0-4.772-2.146-4.772-4.784 0-4.262 4.138-6.786 4.314-6.891a.938.938 0 0 1 .996.022c.173.114 4.234 2.838 4.234 6.869C20.772 29.854 18.631 32 16 32c6.924 0 12.557-5.647 12.557-12.587 0-5.241-2.313-9.938-5.767-13.843z"
        style="fill:var(--color1, #ef8964)" />
    </symbol>

    <symbol id="fork-knife" viewBox="0 0 32 32">
      <path fill="#ef8964"
        d="M24 4a1.332 1.332 0 0 1 1.324 1.177l.009.156v21.333a1.333 1.333 0 0 1-2.657.157l-.009-.156V20h-1.333a1.333 1.333 0 0 1-1.324-1.177l-.009-.156v-8c0-2.947 2-6.667 4-6.667zm-8 0a1.332 1.332 0 0 1 1.324 1.177l.009.156V12a5.333 5.333 0 0 1-4 5.165v9.501a1.336 1.336 0 0 1-2.189 1.022 1.332 1.332 0 0 1-.468-.865l-.009-.156v-9.501a5.331 5.331 0 0 1-3.994-4.89l-.007-.275V5.334a1.336 1.336 0 0 1 2.189-1.021c.261.219.428.528.468.865l.009.156v6.667a2.665 2.665 0 0 0 1.333 2.309V5.334a1.336 1.336 0 0 1 2.189-1.021c.261.219.428.528.468.865l.009.156.001 8.976a2.664 2.664 0 0 0 1.323-2.084l.009-.225V5.334A1.335 1.335 0 0 1 15.998 4z"
        style="fill:var(--color1, #ef8964)" />
    </symbol>

    <symbol id="logo" viewBox="0 0 32 32">
      <path
        d="M31.273 15.117c.402 0 .727.326.727.727v.312a.727.727 0 0 1-.727.727h-.831a.727.727 0 0 0-.727.727v2.078a.727.727 0 0 1-.727.727h-.831a.727.727 0 0 0-.727.727v.312a.727.727 0 0 1-.727.727h-1.974a.727.727 0 0 1-.727-.727V17.61a.727.727 0 0 0-.727-.727H8.73a.727.727 0 0 0-.727.727v3.844a.727.727 0 0 1-.727.727H5.302a.727.727 0 0 1-.727-.727v-.312a.727.727 0 0 0-.727-.727h-.831a.727.727 0 0 1-.727-.727V17.61a.727.727 0 0 0-.727-.727H.732a.727.727 0 0 1-.727-.727v-.312c0-.402.326-.727.727-.727h.831a.727.727 0 0 0 .727-.727v-2.078c0-.402.326-.727.727-.727h.831a.727.727 0 0 0 .727-.727v-.312c0-.402.326-.727.727-.727h1.974c.402 0 .727.326.727.727v3.844c0 .402.326.727.727.727h14.545a.727.727 0 0 0 .727-.727v-3.844c0-.402.326-.727.727-.727h1.974c.402 0 .727.326.727.727v.312c0 .402.326.727.727.727h.831c.402 0 .727.326.727.727v2.078c0 .402.326.727.727.727h.831z" />
    </symbol>

    <symbol id="log-out" viewBox="0 0 32 32">
      <path fill="none" stroke-linecap="round" stroke-linejoin="round"
        stroke-width="2.4"
        d="M12 4h-1.6c-2.24 0-3.36 0-4.216.436a3.991 3.991 0 0 0-1.748 1.748C4 7.04 4 8.16 4 10.4v11.2c0 2.24 0 3.36.436 4.216a3.996 3.996 0 0 0 1.748 1.748C7.04 28 8.16 28 10.4 28H12m9.333-5.333L28 16m0 0-6.667-6.667M28 16H12"
      />
    </symbol>

    <symbol id="pagination" viewBox="0 0 32 32">
      <path fill="none" stroke="#e6533c" stroke-width="2.286"
        d="M30.857 16c0 8.205-6.652 14.857-14.857 14.857S1.143 24.205 1.143 16C1.143 7.795 7.795 1.143 16 1.143S30.857 7.795 30.857 16z"
        style="stroke:var(--color2, #e6533c)" />
      <path fill="#e6533c" d="M25.143 16a9.143 9.143 0 1 1-18.286 0 9.143 9.143 0 0 1 18.286 0z"
        style="fill:var(--color2, #e6533c)" />
    </symbol>

    <symbol id="pause-btn" viewBox="0 0 32 32">
      <path fill="#e6533c" stroke="#e6533c" stroke-linecap="round" stroke-linejoin="round"
        d="M4 10.4c0-2.24 0-3.36.436-4.216a3.991 3.991 0 0 1 1.748-1.748C7.04 4 8.16 4 10.4 4h11.2c2.24 0 3.36 0 4.216.436a3.996 3.996 0 0 1 1.748 1.748C28 7.04 28 8.16 28 10.4v11.2c0 2.24 0 3.36-.436 4.216a4.001 4.001 0 0 1-1.748 1.748C24.96 28 23.84 28 21.6 28H10.4c-2.24 0-3.36 0-4.216-.436a3.996 3.996 0 0 1-1.748-1.748C4 24.96 4 23.84 4 21.6V10.4z"
        style="fill:var(--color2, #e6533c);stroke:var(--color2, #e6533c)" />
      <path fill="none" stroke="#efede8" stroke-linecap="round" stroke-linejoin="round"
        stroke-width="1.3" d="M12.666 20v-8m6.667 8v-8" style="stroke:var(--color3, #efede8)" />
    </symbol>

    <symbol id="play-btn" viewBox="0 0 32 32">
      <path fill="#e6533c" stroke="#e6533c" stroke-linecap="round" stroke-linejoin="round"
        d="M4 10.4c0-2.24 0-3.36.436-4.216a3.991 3.991 0 0 1 1.748-1.748C7.04 4 8.16 4 10.4 4h11.2c2.24 0 3.36 0 4.216.436a3.996 3.996 0 0 1 1.748 1.748C28 7.04 28 8.16 28 10.4v11.2c0 2.24 0 3.36-.436 4.216a4.001 4.001 0 0 1-1.748 1.748C24.96 28 23.84 28 21.6 28H10.4c-2.24 0-3.36 0-4.216-.436a3.996 3.996 0 0 1-1.748-1.748C4 24.96 4 23.84 4 21.6V10.4z"
        style="fill:var(--color2, #e6533c);stroke:var(--color2, #e6533c)" />
      <path fill="#efede8" stroke="#efede8" stroke-linecap="round" stroke-linejoin="round"
        stroke-width="1.3" d="M11.917 10.75 20.084 16l-8.167 5.25v-10.5z"
        style="fill:var(--color3, #efede8);stroke:var(--color3, #efede8)" />
    </symbol>

    <symbol id="run-man" viewBox="0 0 32 32">
      <path fill="#ef8964"
        d="M29.647 9.451a1.185 1.185 0 0 0-1.667-.149l-3.282 2.757-1.509-3.739a1.163 1.163 0 0 0-.229-.362 3.215 3.215 0 0 0-1.582-1.617 3.24 3.24 0 0 0-.982-.262c-.073-.038-.139-.088-.222-.114l-5.775-1.61a1.19 1.19 0 0 0-.917.125 1.155 1.155 0 0 0-.719.672l-2.175 5.592a1.188 1.188 0 0 0 .676 1.534 1.187 1.187 0 0 0 1.532-.678l1.837-4.722 2.63.731c-.064.104-.133.201-.185.312l-3.372 7.309c-.049.107-.075.217-.109.328l-4.098 6.871-6.859 2.294a1.751 1.751 0 0 0 2.081 2.819l7.018-2.417c.215-.156.371-.36.489-.58.088-.094.189-.168.256-.284l2.443-4.096 4.337 3.696-4.641 5.23a1.75 1.75 0 1 0 2.622 2.32l5.791-6.524a1.72 1.72 0 0 0 .36-.676c.043-.132.043-.269.054-.406 0-.069.026-.132.021-.196a1.72 1.72 0 0 0-.601-1.274l-3.991-3.403c.288-.274.532-.6.709-.983l2.585-5.599.828 2.206c.035.196.1.388.239.549.125.149.284.248.454.317.017.009.038.01.059.016.107.038.216.075.329.08.133.012.269-.005.405-.043l.005-.002c.036-.009.073-.002.109-.017a1.17 1.17 0 0 0 .466-.34l4.71-3.998c.501-.421.289-1.166-.132-1.667zm-5.958-2.849a3.301 3.301 0 1 0 0-6.602 3.301 3.301 0 0 0 0 6.602z"
        style="fill:var(--color1, #ef8964)" />
    </symbol>

    <symbol id="run-man-circle" viewBox="0 0 32 32">
      <path fill="#efa082"
        d="M32 16c0 8.837-7.163 16-16 16S0 24.837 0 16 7.163 0 16 0s16 7.163 16 16z"
        style="fill:var(--color4, #efa082)" />
      <path fill="#efede8"
        d="M25.098 11.634a.79.79 0 0 0-1.111-.099l-2.188 1.838-1.006-2.493a.757.757 0 0 0-.153-.241 2.148 2.148 0 0 0-1.055-1.078 2.158 2.158 0 0 0-.655-.174c-.049-.025-.093-.059-.148-.076l-3.85-1.073a.792.792 0 0 0-.611.083.77.77 0 0 0-.479.448l-1.45 3.728a.791.791 0 0 0 .451 1.022.79.79 0 0 0 1.021-.452l1.225-3.148 1.754.488c-.043.069-.089.134-.124.208l-2.248 4.873c-.032.072-.05.144-.073.218l-2.732 4.581-4.572 1.529a1.168 1.168 0 0 0 1.387 1.879l4.679-1.611c.143-.104.247-.24.326-.387.059-.062.126-.112.171-.189l1.629-2.731 2.891 2.464-3.094 3.486a1.167 1.167 0 0 0 1.747 1.547l3.861-4.349c.12-.134.192-.289.24-.451.029-.088.029-.179.036-.27 0-.046.017-.088.014-.131a1.143 1.143 0 0 0-.401-.849l-2.661-2.269c.192-.183.355-.4.473-.655l1.724-3.733.552 1.471a.742.742 0 0 0 .159.366.754.754 0 0 0 .303.211c.012.006.025.007.039.01a.738.738 0 0 0 .489.024l.003-.001c.024-.006.049-.001.073-.012a.8.8 0 0 0 .311-.226l3.14-2.665c.334-.281.193-.777-.088-1.111zm-3.972-1.899a2.201 2.201 0 1 0 0-4.402 2.201 2.201 0 0 0 0 4.402z"
        style="fill:var(--color3, #efede8)" />
    </symbol>

    <symbol id="search" viewBox="0 0 32 32">
      <path stroke-linecap="round" stroke-linejoin="round" stroke-width="2.667"
        d="M14.667 25.333c5.891 0 10.667-4.776 10.667-10.667S20.558 3.999 14.667 3.999 4 8.775 4 14.666s4.776 10.667 10.667 10.667zM28 28l-5.8-5.8" />
    </symbol>

    <symbol id="settings" viewBox="0 0 32 32">
      <path stroke-linecap="round" stroke-linejoin="round" stroke-width="2.286"
        d="M16 20a4 4 0 1 0 0-8 4 4 0 0 0 0 8z" />
      <path stroke-linecap="round" stroke-linejoin="round" stroke-width="2.286"
        d="M24.969 19.636a2.005 2.005 0 0 0 .4 2.206l.073.073a2.422 2.422 0 0 1 0 3.43 2.432 2.432 0 0 1-1.715.711 2.42 2.42 0 0 1-1.715-.711l-.073-.073a2.003 2.003 0 0 0-2.206-.4 1.997 1.997 0 0 0-1.213 1.83v.206a2.421 2.421 0 0 1-2.424 2.424 2.421 2.421 0 0 1-2.424-2.424v-.109a1.996 1.996 0 0 0-1.309-1.831 2.005 2.005 0 0 0-2.206.4l-.073.073a2.428 2.428 0 0 1-3.43 0 2.422 2.422 0 0 1 0-3.43l.073-.073a2.004 2.004 0 0 0 .4-2.206c-.154-.358-.409-.664-.734-.88s-.706-.331-1.096-.332h-.206a2.421 2.421 0 0 1-2.424-2.424 2.421 2.421 0 0 1 2.424-2.424H5.2a1.996 1.996 0 0 0 1.831-1.309 1.997 1.997 0 0 0-.4-2.206l-.073-.073a2.422 2.422 0 0 1 0-3.43 2.422 2.422 0 0 1 3.43 0l.073.073a2.004 2.004 0 0 0 2.206.4h.097a1.997 1.997 0 0 0 1.213-1.83v-.206a2.421 2.421 0 0 1 2.424-2.424 2.421 2.421 0 0 1 2.424 2.424V5.2a2.005 2.005 0 0 0 1.212 1.83 1.997 1.997 0 0 0 2.206-.4l.073-.073a2.432 2.432 0 0 1 1.715-.711 2.42 2.42 0 0 1 1.715.711 2.428 2.428 0 0 1 0 3.43l-.073.073a2.004 2.004 0 0 0-.4 2.206v.097c.154.358.409.664.734.88s.706.331 1.096.332h.206a2.421 2.421 0 0 1 2.424 2.424 2.421 2.421 0 0 1-2.424 2.424H26.8a1.997 1.997 0 0 0-1.83 1.213z" />
    </symbol>

    <symbol id="tick-mark" viewBox="0 0 32 32">
      <path
        d="M16 29.333C8.636 29.333 2.667 23.364 2.667 16S8.636 2.667 16 2.667 29.333 8.636 29.333 16 23.364 29.333 16 29.333zm-1.541-7.353 9.427-9.428-1.885-1.885-7.541 7.543-3.772-3.772-1.885 1.885 5.657 5.657z" />
    </symbol>

    <symbol id="trash" viewBox="0 0 32 32">
      <path fill="none" stroke="#ef8964" stroke-linecap="round" stroke-linejoin="round"
        stroke-width="2.4"
        d="M12 4h8m-6.667 10v6.667M18.667 14v6.667M4 8h24m-2.667 0-.935 14.026c-.14 2.104-.21 3.156-.665 3.954a4.007 4.007 0 0 1-1.731 1.62c-.826.4-1.881.4-3.99.4h-4.025c-2.109 0-3.163 0-3.99-.4a3.996 3.996 0 0 1-1.731-1.62c-.455-.798-.525-1.85-.665-3.954L6.666 8"
        style="stroke:var(--color1, #ef8964)" />
    </symbol>

    <symbol id="triangle" viewBox="0 0 32 32">
      <path d="M29.333 16 2.666 31.396V.604L29.333 16z" />
    </symbol>

    <symbol id="x" viewBox="0 0 32 32">
      <path stroke-linecap="round" stroke-linejoin="round" stroke-width="3.556"
        d="M24 8 8 24M8 8l16 16" />
    </symbol>
    <symbol id="x-modal" viewBox="0 0 32 32">
      <path stroke-linecap="round" stroke-linejoin="round" stroke-width="2.462"
        d="M24 8 8 24M8 8l16 16" />
    </symbol>
    <symbol id="icon-calendar" viewBox="0 0 32 32">
      <path fill="none" stroke="#efede8" style="stroke: var(--color1, #efede8)"
        stroke-linejoin="round" stroke-linecap="round" stroke-miterlimit="4" stroke-width="2.6667"
        d="M25.333 5.333h-18.667c-1.473 0-2.667 1.194-2.667 2.667v18.667c0 1.473 1.194 2.667 2.667 2.667h18.667c1.473 0 2.667-1.194 2.667-2.667v-18.667c0-1.473-1.194-2.667-2.667-2.667z"></path>
      <path fill="none" stroke="#efede8" style="stroke: var(--color1, #efede8)"
        stroke-linejoin="round" stroke-linecap="round" stroke-miterlimit="4" stroke-width="2.6667"
        d="M21.333 2.667v5.333"></path>
      <path fill="none" stroke="#efede8" style="stroke: var(--color1, #efede8)"
        stroke-linejoin="round" stroke-linecap="round" stroke-miterlimit="4" stroke-width="2.6667"
        d="M10.667 2.667v5.333"></path>
      <path fill="none" stroke="#efede8" style="stroke: var(--color1, #efede8)"
        stroke-linejoin="round" stroke-linecap="round" stroke-miterlimit="4" stroke-width="2.6667"
        d="M4 13.333h24"></path>
    </symbol>

    <symbol id="icon-check-mark" viewBox="0 0 32 32">
      <path fill="#e6533c" style="fill: var(--color1, #e6533c)"
        d="M11.231 0.57l4.024 1.164c0.452 0.131 0.932 0.132 1.384 0.003l4.175-1.189c1.127-0.321 2.326 0.181 2.889 1.208l2.18 3.982c0.224 0.409 0.558 0.748 0.964 0.978l3.39 1.92c1.028 0.582 1.511 1.803 1.159 2.931l-1.172 3.759c-0.151 0.484-0.152 1.002-0.002 1.487l1.191 3.86c0.344 1.114-0.125 2.318-1.132 2.906l-3.859 2.256c-0.404 0.236-0.734 0.581-0.953 0.995l-1.797 3.404c-0.545 1.033-1.731 1.553-2.86 1.255l-4.22-1.114c-0.423-0.112-0.868-0.111-1.291 0.002l-4.057 1.088c-1.155 0.31-2.369-0.239-2.899-1.311l-1.788-3.612c-0.236-0.476-0.617-0.866-1.088-1.112l-3.674-1.918c-1.048-0.547-1.572-1.752-1.258-2.893l1.075-3.896c0.118-0.429 0.121-0.882 0.006-1.313l-1.118-4.206c-0.295-1.111 0.201-2.28 1.206-2.838l3.831-2.131c0.429-0.239 0.778-0.598 1.005-1.033l1.765-3.385c0.552-1.059 1.775-1.582 2.922-1.25z"></path>
      <path fill="none" stroke="#efede8" style="stroke: var(--color2, #efede8)"
        stroke-linejoin="round" stroke-linecap="round" stroke-miterlimit="4" stroke-width="2"
        d="M16.333 9.333v13.333"></path>
      <path fill="none" stroke="#efede8" style="stroke: var(--color2, #efede8)"
        stroke-linejoin="round" stroke-linecap="round" stroke-miterlimit="4" stroke-width="2"
        d="M9.333 16h13.333"></path>
    </symbol>

    <symbol id="attention-icon" viewBox="0 0 32 32">
      <path fill="#efa082" d="M32 16c0 8.837-7.163 16-16 16S0 24.837 0 16 7.163 0 16 0s16 7.163 16 16z" style="fill:var(--color1, #efa082)"/>
      <path fill="none" stroke="#efede8" stroke-linecap="round" stroke-linejoin="round" stroke-width="2.667" d="M16 25.333v.013M16 20V6.667" style="stroke:var(--color2, #efede8)"/>
    </symbol>
    <symbol id="calorie-intake" viewBox="0 0 32 32">
      <path fill="#ef8964" d="M23.996 4a1.332 1.332 0 0 1 1.324 1.177l.009.156v21.333a1.336 1.336 0 0 1-2.19 1.022 1.332 1.332 0 0 1-.468-.865l-.009-.156V20h-1.333a1.333 1.333 0 0 1-1.324-1.177l-.009-.156v-8c0-2.947 2-6.667 4-6.667zm-8 0a1.332 1.332 0 0 1 1.324 1.177l.009.156V12a5.333 5.333 0 0 1-4 5.165v9.501a1.336 1.336 0 0 1-2.189 1.022 1.332 1.332 0 0 1-.468-.865l-.009-.156v-9.501a5.331 5.331 0 0 1-3.994-4.89l-.007-.275V5.334a1.336 1.336 0 0 1 2.189-1.021c.261.219.428.528.468.865l.009.156v6.667a2.665 2.665 0 0 0 1.333 2.309V5.334a1.336 1.336 0 0 1 2.189-1.021c.261.219.428.528.468.865l.009.156.001 8.976a2.664 2.664 0 0 0 1.323-2.084l.009-.225V5.334A1.335 1.335 0 0 1 15.994 4z" style="fill:var(--color3, #ef8964)"/>
    </symbol>
    <symbol id="calories-burned" viewBox="0 0 32 32">
      <path fill="#ef8964" d="M15.998 22.291c-.946.72-2.898 2.5-2.898 4.925 0 1.601 1.3 2.904 2.897 2.904s2.897-1.303 2.897-2.904c0-2.297-1.954-4.161-2.895-4.925z" style="fill:var(--color3, #ef8964)"/>
      <path fill="#ef8964" d="M22.79 5.57a.936.936 0 0 0-1.34-.064l-4.412 4.117V1c0-.722-.87-1.261-1.522-.867-.123.075-3.055 1.865-6.017 5.116-3.602 3.953-6.055 8.766-6.055 14.164C3.444 26.354 9.077 32 16.001 32c-2.631 0-4.772-2.146-4.772-4.784 0-4.262 4.138-6.786 4.314-6.891a.938.938 0 0 1 .996.022c.173.114 4.234 2.838 4.234 6.869 0 2.638-2.141 4.784-4.772 4.784 6.924 0 12.557-5.647 12.557-12.587 0-5.241-2.313-9.938-5.767-13.843z" style="fill:var(--color3, #ef8964)"/>
    </symbol>
    <symbol id="calories-consumed" viewBox="0 0 32 32">
      <path fill="#ef8964" d="M19.453 4.758a.794.794 0 0 0 .479-.399.798.798 0 0 0-.672-1.166.798.798 0 0 0-.314.048c-1.501.499-2.435 1.731-2.986 3.051a8.02 8.02 0 0 0-.203.542 6.394 6.394 0 0 0-1.138-1.541 6.39 6.39 0 0 0-4.705-1.872A1.74 1.74 0 0 0 8.22 5.115a6.39 6.39 0 0 0 1.872 4.705l.05.048a6.401 6.401 0 0 0-5.027 5.747l-.01.118a13.6 13.6 0 0 0 1.616 7.597l.576 1.053a.979.979 0 0 0 .051.08l1.6 2.243a4.301 4.301 0 0 0 3.142 1.785 4.297 4.297 0 0 0 3.392-1.244.743.743 0 0 1 .516-.214.72.72 0 0 1 .516.214 4.299 4.299 0 0 0 5.16.698 4.28 4.28 0 0 0 1.374-1.239l1.6-2.242a.625.625 0 0 0 .051-.082l.574-1.053a13.598 13.598 0 0 0 1.616-7.597l-.008-.118a6.386 6.386 0 0 0-2.442-4.533 6.404 6.404 0 0 0-4.99-1.268l-2.651.442c.016-1.09.208-2.315.638-3.349.448-1.08 1.114-1.848 2.013-2.149h.002zm-8.4 9.6a1.955 1.955 0 0 0-1.147.968c-.296.557-.499 1.475-.312 2.974a.8.8 0 0 1-1.587.198c-.213-1.702-.016-2.984.488-3.926a3.551 3.551 0 0 1 2.053-1.733.791.791 0 0 1 .858.235.814.814 0 0 1 .194.581.791.791 0 0 1-.274.548.814.814 0 0 1-.271.155z" style="fill:var(--color3, #ef8964)"/>
    </symbol>
    <symbol id="calories-remaining" viewBox="0 0 32 32">
      <path fill="#ef8964" d="M20.79 16.346c3.778 0 6.84-3.062 6.84-6.84s-3.062-6.84-6.84-6.84-6.84 3.062-6.84 6.84 3.062 6.84 6.84 6.84zM8.475 25.919a4.107 4.107 0 1 0 0-8.215 4.107 4.107 0 0 0 0 8.215zM22.151 29.332a3.413 3.413 0 1 0 0-6.826 3.413 3.413 0 0 0 0 6.826z" style="fill:var(--color3, #ef8964)"/>
    </symbol>
    <symbol id="physical-activity" viewBox="0 0 32 32">
      <path fill="#ef8964" d="M5.2 8H2.8c-.665 0-1.2.535-1.2 1.2v5.2H.4c-.22 0-.4.18-.4.4v2.4c0 .22.18.4.4.4h1.2v5.2c0 .665.535 1.2 1.2 1.2h2.4c.665 0 1.2-.535 1.2-1.2V9.2c0-.665-.535-1.2-1.2-1.2zm26.4 6.4h-1.2V9.2c0-.665-.535-1.2-1.2-1.2h-2.4c-.665 0-1.2.535-1.2 1.2v13.6c0 .665.535 1.2 1.2 1.2h2.4c.665 0 1.2-.535 1.2-1.2v-5.2h1.2c.22 0 .4-.18.4-.4v-2.4c0-.22-.18-.4-.4-.4zm-8.8-9.6h-2.4c-.665 0-1.2.535-1.2 1.2v8.4h-6.4V6c0-.665-.535-1.2-1.2-1.2H9.2C8.535 4.8 8 5.335 8 6v20c0 .665.535 1.2 1.2 1.2h2.4c.665 0 1.2-.535 1.2-1.2v-8.4h6.4V26c0 .665.535 1.2 1.2 1.2h2.4c.665 0 1.2-.535 1.2-1.2V6c0-.665-.535-1.2-1.2-1.2z" style="fill:var(--color3, #ef8964)"/>
    </symbol>
    <symbol id="sports-remaining" viewBox="0 0 32 32">
      <path fill="#ef8964" d="M29.642 9.451a1.185 1.185 0 0 0-1.667-.149l-3.282 2.757-1.509-3.739a1.163 1.163 0 0 0-.229-.362 3.215 3.215 0 0 0-1.582-1.617 3.238 3.238 0 0 0-.983-.262c-.073-.038-.139-.088-.222-.114l-5.775-1.61a1.19 1.19 0 0 0-.917.125 1.155 1.155 0 0 0-.719.672l-2.175 5.592a1.188 1.188 0 0 0 .676 1.534 1.187 1.187 0 0 0 1.532-.678l1.837-4.722 2.63.731c-.064.104-.133.201-.185.312L13.7 15.23c-.049.107-.075.217-.109.328l-4.098 6.871-6.859 2.294a1.751 1.751 0 0 0 2.081 2.819l7.018-2.417c.215-.156.371-.36.489-.58.088-.094.189-.168.256-.284l2.443-4.096 4.337 3.696-4.64 5.23a1.75 1.75 0 1 0 2.622 2.32l5.791-6.524a1.72 1.72 0 0 0 .36-.676c.043-.132.043-.269.054-.406 0-.069.026-.132.021-.196a1.72 1.72 0 0 0-.601-1.274l-3.991-3.403c.288-.274.532-.6.709-.983l2.585-5.599.828 2.206c.035.196.1.388.239.549.125.149.284.248.454.317.017.009.038.01.059.016.108.038.217.075.329.08.133.012.269-.005.405-.043l.005-.002c.036-.009.073-.002.109-.017a1.17 1.17 0 0 0 .466-.34l4.71-3.998c.501-.421.289-1.166-.132-1.667zM23.688 6.602a3.301 3.301 0 1 0 0-6.602 3.301 3.301 0 0 0 0 6.602z" style="fill:var(--color3, #ef8964)"/>
    </symbol>
    <symbol id="icon-user" viewBox="0 0 32 32">
      <path
        d="M16.235 0c2.122 0 4.157 0.843 5.657 2.343s2.343 3.535 2.343 5.657-0.843 4.157-2.343 5.657c-1.5 1.5-3.535 2.343-5.657 2.343s-4.157-0.843-5.657-2.343c-1.5-1.5-2.343-3.535-2.343-5.657s0.843-4.157 2.343-5.657c1.5-1.5 3.535-2.343 5.657-2.343zM16.235 32c0 0 16 0 16-4 0-4.8-7.8-10-16-10s-16 5.2-16 10c0 4 16 4 16 4z"></path>
    </symbol>
    <symbol id="arrow-left-ex" viewBox="0 0 32 32">
      <path fill="none" stroke="rgba(239, 237, 232, 0.4)" stroke-linecap="round" stroke-linejoin="round" stroke-width="2.6" d="M17 28 4 15m0 0L17 2M4 15h26"/>
    </symbol>
  </defs>
</svg>